# xmcd
#
# Track frame offsets:
#	150
#	16870
#	34652
#	50367
#	65085
#	84507
#	110635
#	129660
#	148372
#	164547
#	185457
#	200612
#
# Disc length: 2909 seconds
#
# Revision: 0
# Processed by: cddbd v1.5.1PL0 Copyright (c) Steve Scherf et al.
# Submitted via: dBpowerAMP V4.0
#
DISCID=b00b5b0c
DTITLE=MAZZ - EN VIVO
DYEAR=1991
DGENRE=Latin
TTITLE0=VEN DEVORAME OTRA VEZ
TTITLE1=VAMOS A OLVIDARNOS
TTITLE2=SOY COMO SOY
TTITLE3=PERO NO
TTITLE4=AMOR CON AMOR
TTITLE5=POLKITAS DEL TIGRE
TTITLE6=NO TE OLVIDARE
TTITLE7=GABINO BARRERA
TTITLE8=QUE GANAS
TTITLE9=LAURA
TTITLE10=VEN DEVORAME OTRAVEZ 2
TTITLE11=QUE ME LLEVEN CANCIONES
EXTD=
EXTT0=
EXTT1=
EXTT2=
EXTT3=
EXTT4=
EXTT5=
EXTT6=
EXTT7=
EXTT8=
EXTT9=
EXTT10=
EXTT11=
PLAYORDER=
